# Blender v3.2.1 OBJ File: 'tower5.blend'
# www.blender.org
mtllib tower5.mtl
o Kostka
v -1.000000 0.002682 1.000000
v -1.000000 0.002682 -1.000000
v 1.000000 0.002682 1.000000
v 1.000000 0.002682 -1.000000
v 0.650000 2.502682 -0.650000
v 0.650000 2.502682 0.650000
v -0.650000 2.502682 -0.650000
v -0.650000 2.502682 0.650000
v 0.325000 2.502682 0.650000
v -0.325000 2.502682 0.650000
v -0.325000 2.502682 1.000000
v 0.325000 2.502682 1.000000
v -0.650000 2.502682 0.325000
v -0.650000 2.502682 -0.325000
v -1.000000 2.502682 -0.325000
v -1.000000 2.502682 0.325000
v 0.650000 2.502682 0.325000
v 0.650000 2.502682 -0.325000
v 1.000000 2.502682 0.325000
v 1.000000 2.502682 -0.325000
v -0.325000 2.752682 -1.000000
v 0.325000 2.752682 -1.000000
v 0.325000 2.752682 -0.650000
v -0.325000 2.752682 -0.650000
v 1.000000 3.002682 0.325000
v 1.000000 3.002682 1.000000
v -1.000000 3.002682 -0.325000
v -1.000000 3.002682 -1.000000
v -0.325000 3.002682 -1.000000
v 0.325000 3.002682 -1.000000
v 1.000000 3.002682 -1.000000
v 0.325000 3.002682 1.000000
v -0.325000 3.002682 1.000000
v -1.000000 3.002682 1.000000
v 0.650000 3.002682 0.325000
v 0.650000 3.002682 0.650000
v -0.650000 3.002682 0.325000
v -0.650000 3.002682 0.650000
v 0.325000 3.002682 -0.650000
v 0.650000 3.002682 -0.650000
v 0.325000 3.002682 0.650000
v -0.325000 3.002682 0.650000
v -0.650000 3.002682 -0.650000
v -0.650000 3.002682 -0.325000
v -1.000000 3.002682 0.325000
v 0.650000 3.002682 -0.325000
v 1.000000 3.002682 -0.325000
v -0.325000 3.002682 -0.650000
vt 0.125000 0.500000
vt 0.375000 0.500000
vt 0.375000 0.750000
vt 0.125000 0.750000
vt 0.625000 0.145833
vt 0.625000 0.145833
vt 0.625000 0.250000
vt 0.375000 0.250000
vt 0.375000 0.000000
vt 0.625000 0.000000
vt 0.625000 0.104167
vt 0.625000 0.104167
vt 0.791667 0.645833
vt 0.791667 0.645833
vt 0.791667 0.666667
vt 0.791667 0.666667
vt 0.729167 0.750000
vt 0.729167 0.750000
vt 0.729167 0.666667
vt 0.729167 0.666667
vt 0.791667 0.604167
vt 0.791667 0.604167
vt 0.875000 0.604167
vt 0.875000 0.604167
vt 0.770833 0.583333
vt 0.770833 0.500000
vt 0.770833 0.500000
vt 0.770833 0.583333
vt 0.729167 0.583333
vt 0.729167 0.500000
vt 0.708333 0.666667
vt 0.625000 0.750000
vt 0.625000 0.645833
vt 0.708333 0.645833
vt 0.708333 0.583333
vt 0.708333 0.583333
vt 0.729167 0.583333
vt 0.791667 0.583333
vt 0.791667 0.583333
vt 0.708333 0.666667
vt 0.625000 0.604167
vt 0.625000 0.604167
vt 0.708333 0.604167
vt 0.708333 0.604167
vt 0.770833 0.666667
vt 0.770833 0.750000
vt 0.708333 0.645833
vt 0.625000 0.645833
vt 0.875000 0.645833
vt 0.770833 0.666667
vt 0.770833 0.750000
vt 0.875000 0.645833
vt 0.625000 0.500000
vt 0.729167 0.500000
vt 0.875000 0.500000
vt 0.875000 0.750000
vt 0.625000 0.354167
vt 0.625000 0.354167
vt 0.625000 0.395833
vt 0.625000 0.395833
vt 0.625000 0.854167
vt 0.625000 0.854167
vt 0.625000 0.895833
vt 0.625000 0.895833
vt 0.625000 1.000000
vt 0.375000 1.000000
vn 0.0000 -1.0000 0.0000
vn -1.0000 -0.0000 0.0000
vn 1.0000 0.0000 0.0000
vn 0.0000 0.0000 1.0000
vn 0.0000 1.0000 0.0000
vn 0.0000 0.0000 -1.0000
usemtl None
s off
f 2/1/1 4/2/1 3/3/1 1/4/1
f 15/5/2 27/6/2 28/7/2 2/8/2 1/9/2 34/10/2 45/11/2 16/12/2
f 13/13/3 37/14/3 38/15/3 8/16/3
f 12/17/2 32/18/2 41/19/2 9/20/2
f 14/21/4 44/22/4 27/23/4 15/24/4
f 24/25/3 21/26/3 29/27/3 48/28/3
f 21/26/5 24/25/5 23/29/5 22/30/5
f 36/31/5 41/19/5 32/18/5 26/32/5 25/33/5 35/34/5
f 5/35/4 40/36/4 39/37/4 23/29/4 24/25/4 48/28/4 43/38/4 7/39/4
f 9/20/6 41/19/6 36/31/6 6/40/6
f 20/41/4 47/42/4 46/43/4 18/44/4
f 10/45/5 11/46/5 12/17/5 9/20/5 6/40/5 17/47/5 19/48/5 20/41/5 18/44/5 5/35/5 7/39/5 14/21/5 15/24/5 16/49/5 13/13/5 8/16/5
f 10/45/3 42/50/3 33/51/3 11/46/3
f 7/39/3 43/38/3 44/22/3 14/21/3
f 17/47/6 35/34/6 25/33/6 19/48/6
f 16/49/6 45/52/6 37/14/6 13/13/6
f 19/48/3 25/33/3 26/32/3 3/3/3 4/2/3 31/53/3 47/42/3 20/41/3
f 40/36/5 46/43/5 47/42/5 31/53/5 30/54/5 39/37/5
f 29/27/5 28/55/5 27/23/5 44/22/5 43/38/5 48/28/5
f 8/16/6 38/15/6 42/50/6 10/45/6
f 38/15/5 37/14/5 45/52/5 34/56/5 33/51/5 42/50/5
f 22/30/2 23/29/2 39/37/2 30/54/2
f 2/8/6 28/7/6 29/57/6 21/58/6 22/59/6 30/60/6 31/53/6 4/2/6
f 3/3/4 26/32/4 32/61/4 12/62/4 11/63/4 33/64/4 34/65/4 1/66/4
f 18/44/2 46/43/2 40/36/2 5/35/2
f 6/40/2 36/31/2 35/34/2 17/47/2
