# Blender v3.2.1 OBJ File: 'tower1.blend'
# www.blender.org
mtllib tower1.mtl
o Kostka_Kostka.001
v -1.000000 0.012866 1.000000
v -1.000000 0.012866 -1.000000
v 1.000000 0.012866 1.000000
v 1.000000 0.012866 -1.000000
v 0.650000 0.512866 -0.650000
v 0.650000 0.512866 0.650000
v -0.650000 0.512866 -0.650000
v -0.650000 0.512866 0.650000
v -0.325000 0.512866 1.000000
v 0.325000 0.512866 1.000000
v 0.325000 0.512866 0.650000
v -0.325000 0.512866 0.650000
v -0.650000 0.512866 0.325000
v -0.650000 0.512866 -0.325000
v -1.000000 0.512866 -0.325000
v -1.000000 0.512866 0.325000
v 1.000000 0.512866 0.325000
v 1.000000 0.512866 -0.325000
v 0.650000 0.512866 0.325000
v 0.650000 0.512866 -0.325000
v -0.325000 0.762866 -1.000000
v 0.325000 0.762866 -1.000000
v 0.325000 0.762866 -0.650000
v -0.325000 0.762866 -0.650000
v 1.000000 1.012866 0.325000
v 1.000000 1.012866 1.000000
v -1.000000 1.012866 -0.325000
v -1.000000 1.012866 -1.000000
v -0.325000 1.012866 -1.000000
v 0.325000 1.012866 -1.000000
v 1.000000 1.012866 -1.000000
v -0.325000 1.012866 1.000000
v -1.000000 1.012866 1.000000
v 0.650000 1.012866 0.325000
v 0.650000 1.012866 0.650000
v -0.650000 1.012866 0.325000
v -0.650000 1.012866 0.650000
v 0.325000 1.012866 -0.650000
v 0.650000 1.012866 -0.650000
v 0.325000 1.012866 0.650000
v 0.325000 1.012866 1.000000
v -0.325000 1.012866 0.650000
v -0.650000 1.012866 -0.650000
v -0.650000 1.012866 -0.325000
v -1.000000 1.012866 0.325000
v -0.325000 1.012866 -0.650000
v 1.000000 1.012866 -0.325000
v 0.650000 1.012866 -0.325000
vt 0.791667 0.613579
vt 0.875000 0.613579
vt 0.875000 0.674071
vt 0.791667 0.674071
vt 0.791667 0.704316
vt 0.770833 0.704316
vt 0.770833 0.750000
vt 0.729167 0.750000
vt 0.729167 0.704316
vt 0.708333 0.704316
vt 0.708333 0.674071
vt 0.625000 0.674071
vt 0.625000 0.613579
vt 0.708333 0.613579
vt 0.708333 0.583333
vt 0.791667 0.583333
vt 0.125000 0.500000
vt 0.375000 0.500000
vt 0.375000 0.750000
vt 0.125000 0.750000
vt 0.791667 0.613579
vt 0.875000 0.613579
vt 0.791667 0.704316
vt 0.770833 0.704316
vt 0.625000 0.895833
vt 0.625000 0.895833
vt 0.625000 1.000000
vt 0.375000 1.000000
vt 0.625000 0.750000
vt 0.625000 0.854167
vt 0.625000 0.854167
vt 0.625000 0.674071
vt 0.625000 0.500000
vt 0.625000 0.613579
vt 0.791667 0.583333
vt 0.708333 0.613579
vt 0.729167 0.704316
vt 0.708333 0.704316
vt 0.729167 0.583333
vt 0.729167 0.500000
vt 0.770833 0.500000
vt 0.770833 0.583333
vt 0.708333 0.674071
vt 0.875000 0.674071
vt 0.791667 0.674071
vt 0.708333 0.583333
vt 0.729167 0.583333
vt 0.770833 0.583333
vt 0.875000 0.750000
vt 0.770833 0.750000
vt 0.729167 0.750000
vt 0.875000 0.500000
vt 0.770833 0.500000
vt 0.729167 0.500000
vt 0.625000 0.136421
vt 0.625000 0.136421
vt 0.625000 0.250000
vt 0.375000 0.250000
vt 0.375000 0.000000
vt 0.625000 0.000000
vt 0.625000 0.075929
vt 0.625000 0.075929
vt 0.625000 0.354167
vt 0.625000 0.354167
vt 0.625000 0.395833
vt 0.625000 0.395833
vn 0.0000 1.0000 0.0000
vn 0.0000 -1.0000 0.0000
vn 0.0000 0.0000 1.0000
vn 0.0000 0.0000 -1.0000
vn 1.0000 -0.0000 0.0000
vn -1.0000 0.0000 0.0000
usemtl None
s off
f 14/1/1 15/2/1 16/3/1 13/4/1 8/5/1 12/6/1 9/7/1 10/8/1 11/9/1 6/10/1 19/11/1 17/12/1 18/13/1 20/14/1 5/15/1 7/16/1
f 2/17/2 4/18/2 3/19/2 1/20/2
f 14/1/3 44/21/3 27/22/3 15/2/3
f 8/5/4 37/23/4 42/24/4 12/6/4
f 9/25/3 32/26/3 33/27/3 1/28/3 3/19/3 26/29/3 41/30/3 10/31/3
f 17/12/5 25/32/5 26/29/5 3/19/5 4/18/5 31/33/5 47/34/5 18/13/5
f 7/16/5 43/35/5 44/21/5 14/1/5
f 18/13/3 47/34/3 48/36/3 20/14/3
f 11/9/4 40/37/4 35/38/4 6/10/4
f 23/39/1 22/40/1 21/41/1 24/42/1
f 6/10/6 35/38/6 34/43/6 19/11/6
f 16/3/4 45/44/4 36/45/4 13/4/4
f 5/15/3 39/46/3 38/47/3 23/39/3 24/42/3 46/48/3 43/35/3 7/16/3
f 20/14/6 48/36/6 39/46/6 5/15/6
f 36/45/1 45/44/1 33/49/1 32/50/1 42/24/1 37/23/1
f 10/8/6 41/51/6 40/37/6 11/9/6
f 19/11/4 34/43/4 25/32/4 17/12/4
f 35/38/1 40/37/1 41/51/1 26/29/1 25/32/1 34/43/1
f 28/52/1 27/22/1 44/21/1 43/35/1 46/48/1 29/53/1
f 39/46/1 48/36/1 47/34/1 31/33/1 30/54/1 38/47/1
f 13/4/5 36/45/5 37/23/5 8/5/5
f 12/6/5 42/24/5 32/50/5 9/7/5
f 15/55/6 27/56/6 28/57/6 2/58/6 1/59/6 33/60/6 45/61/6 16/62/6
f 24/42/5 21/41/5 29/53/5 46/48/5
f 2/58/4 28/57/4 29/63/4 21/64/4 22/65/4 30/66/4 31/33/4 4/18/4
f 22/40/6 23/39/6 38/47/6 30/54/6
